<svg width="100%" viewBox="0 0 680 680" role="img" xmlns="http://www.w3.org/2000/svg">
  <title>Roofing Solutions illustration</title>
  <desc>Isometric rooftop with layered shingles, gutters, chimney and roofing details in teal and slate tones</desc>
  <defs>
    <style>
      .shingle { fill: #1a3545; stroke: #86b7cc; stroke-width: 1.2; }
      .shingle-alt { fill: #0f2530; stroke: #86b7cc; stroke-width: 1.2; }
      .shingle-top { fill: #243f50; stroke: #86b7cc; stroke-width: 1.0; }
      .roof-base { fill: #e8f2f8; stroke: #86b7cc; stroke-width: 2; }
      .roof-side { fill: #c8dde8; stroke: #86b7cc; stroke-width: 2; }
      .roof-right { fill: #d8eaf4; stroke: #86b7cc; stroke-width: 2; }
      .ridge { fill: none; stroke: #86b7cc; stroke-width: 3; stroke-linecap: round; }
      .gutter { fill: #86b7cc; stroke: #5a9ab8; stroke-width: 1.5; opacity: 0.9; }
      .chimney-body { fill: #2d5261; stroke: #86b7cc; stroke-width: 1.8; }
      .chimney-top { fill: #1f3943; stroke: #86b7cc; stroke-width: 1.8; }
      .dot-accent { fill: #86b7cc; }
      .glow { fill: #86b7cc; opacity: 0.1; }
      .measure { fill: none; stroke: #86b7cc; stroke-width: 1; stroke-dasharray: 4,3; opacity: 0.6; }
    </style>
  </defs>
  <ellipse cx="340" cy="510" rx="240" ry="70" class="glow"/>
  <polygon points="140,330 340,220 540,330 340,440" class="roof-base"/>
  <polygon points="140,330 140,470 340,580 340,440" class="roof-side"/>
  <polygon points="540,330 540,470 340,580 340,440" class="roof-right"/>
  <line x1="340" y1="220" x2="340" y2="440" class="ridge"/>
  <rect x="195" y="258" width="52" height="18" rx="3" class="shingle-top" transform="rotate(-27, 221, 267)"/>
  <rect x="243" y="235" width="52" height="18" rx="3" class="shingle-top" transform="rotate(-27, 269, 244)"/>
  <rect x="291" y="212" width="52" height="18" rx="3" class="shingle-top" transform="rotate(-27, 317, 221)"/>
  <rect x="170" y="285" width="52" height="20" rx="3" class="shingle" transform="rotate(-27, 196, 295)"/>
  <rect x="218" y="262" width="52" height="20" rx="3" class="shingle-alt" transform="rotate(-27, 244, 272)"/>
  <rect x="266" y="239" width="52" height="20" rx="3" class="shingle" transform="rotate(-27, 292, 249)"/>
  <rect x="314" y="216" width="52" height="20" rx="3" class="shingle-alt" transform="rotate(-27, 340, 226)"/>
  <rect x="148" y="308" width="52" height="20" rx="3" class="shingle-alt" transform="rotate(-27, 174, 318)"/>
  <rect x="196" y="285" width="52" height="20" rx="3" class="shingle" transform="rotate(-27, 222, 295)"/>
  <rect x="244" y="262" width="52" height="20" rx="3" class="shingle-alt" transform="rotate(-27, 270, 272)"/>
  <rect x="292" y="239" width="52" height="20" rx="3" class="shingle" transform="rotate(-27, 318, 249)"/>
  <rect x="340" y="216" width="30" height="20" rx="3" class="shingle-alt" transform="rotate(-27, 355, 226)"/>
  <rect x="148" y="328" width="52" height="20" rx="3" class="shingle" transform="rotate(-27, 174, 338)"/>
  <rect x="196" y="305" width="52" height="20" rx="3" class="shingle-alt" transform="rotate(-27, 222, 315)"/>
  <rect x="244" y="282" width="52" height="20" rx="3" class="shingle" transform="rotate(-27, 270, 292)"/>
  <rect x="292" y="259" width="52" height="20" rx="3" class="shingle-alt" transform="rotate(-27, 318, 269)"/>
  <rect x="335" y="238" width="30" height="20" rx="3" class="shingle" transform="rotate(-27, 350, 248)"/>
  <rect x="345" y="238" width="52" height="20" rx="3" class="shingle-top" transform="rotate(27, 371, 248)"/>
  <rect x="393" y="261" width="52" height="20" rx="3" class="shingle-top" transform="rotate(27, 419, 271)"/>
  <rect x="441" y="284" width="52" height="20" rx="3" class="shingle-top" transform="rotate(27, 467, 294)"/>
  <rect x="340" y="258" width="52" height="20" rx="3" class="shingle" transform="rotate(27, 366, 268)"/>
  <rect x="388" y="281" width="52" height="20" rx="3" class="shingle-alt" transform="rotate(27, 414, 291)"/>
  <rect x="436" y="304" width="52" height="20" rx="3" class="shingle" transform="rotate(27, 462, 314)"/>
  <rect x="484" y="327" width="30" height="20" rx="3" class="shingle-alt" transform="rotate(27, 499, 337)"/>
  <rect x="340" y="278" width="52" height="20" rx="3" class="shingle-alt" transform="rotate(27, 366, 288)"/>
  <rect x="388" y="301" width="52" height="20" rx="3" class="shingle" transform="rotate(27, 414, 311)"/>
  <rect x="436" y="324" width="52" height="20" rx="3" class="shingle-alt" transform="rotate(27, 462, 334)"/>
  <rect x="484" y="347" width="30" height="20" rx="3" class="shingle" transform="rotate(27, 499, 357)"/>
  <rect x="340" y="298" width="52" height="20" rx="3" class="shingle" transform="rotate(27, 366, 308)"/>
  <rect x="388" y="321" width="52" height="20" rx="3" class="shingle-alt" transform="rotate(27, 414, 331)"/>
  <rect x="436" y="344" width="52" height="20" rx="3" class="shingle" transform="rotate(27, 462, 354)"/>
  <rect x="484" y="367" width="30" height="20" rx="3" class="shingle-alt" transform="rotate(27, 499, 377)"/>
  <polygon points="430,200 430,280 460,295 460,215" class="chimney-body"/>
  <polygon points="430,200 460,215 475,205 445,190" class="chimney-top"/>
  <polygon points="445,190 475,205 475,200 445,185" class="chimney-top"/>
  <rect x="426" y="185" width="54" height="8" rx="2" fill="#1f3943" stroke="#86b7cc" stroke-width="1.5"/>
  <path d="M 448 180 Q 444 168 448 158 Q 452 148 448 138" fill="none" stroke="#86b7cc" stroke-width="1.5" stroke-linecap="round" opacity="0.4"/>
  <path d="M 460 178 Q 456 164 460 152 Q 464 140 460 130" fill="none" stroke="#86b7cc" stroke-width="1.5" stroke-linecap="round" opacity="0.3"/>
  <polygon points="140,330 155,340 340,452 340,440" class="gutter" opacity="0.6"/>
  <polygon points="540,330 525,340 340,452 340,440" class="gutter" opacity="0.5"/>
  <rect x="137" y="330" width="10" height="120" rx="3" class="gutter"/>
  <rect x="137" y="450" width="20" height="8" rx="2" class="gutter"/>
  <line x1="120" y1="220" x2="120" y2="470" class="measure"/>
  <line x1="115" y1="220" x2="125" y2="220" stroke="#86b7cc" stroke-width="1" opacity="0.6"/>
  <line x1="115" y1="470" x2="125" y2="470" stroke="#86b7cc" stroke-width="1" opacity="0.6"/>
  <circle cx="120" cy="345" r="3" fill="#86b7cc" opacity="0.5"/>
  <line x1="140" y1="490" x2="540" y2="490" class="measure"/>
  <line x1="140" y1="485" x2="140" y2="495" stroke="#86b7cc" stroke-width="1" opacity="0.6"/>
  <line x1="540" y1="485" x2="540" y2="495" stroke="#86b7cc" stroke-width="1" opacity="0.6"/>
  <circle cx="340" cy="490" r="3" fill="#86b7cc" opacity="0.5"/>
  <g transform="translate(78, 170) rotate(-15)">
    <rect x="0" y="0" width="60" height="14" rx="3" fill="#1a3545" stroke="#86b7cc" stroke-width="1.5"/>
    <rect x="0" y="0" width="16" height="14" rx="3" fill="#86b7cc" opacity="0.7"/>
    <line x1="20" y1="14" x2="30" y2="40" stroke="#86b7cc" stroke-width="2" stroke-linecap="round"/>
    <line x1="30" y1="40" x2="28" y2="56" stroke="#86b7cc" stroke-width="2.5" stroke-linecap="round"/>
  </g>
  <circle cx="207" cy="278" r="2.5" class="dot-accent" opacity="0.6"/>
  <circle cx="255" cy="255" r="2.5" class="dot-accent" opacity="0.6"/>
  <circle cx="303" cy="232" r="2.5" class="dot-accent" opacity="0.6"/>
  <circle cx="367" cy="268" r="2.5" class="dot-accent" opacity="0.6"/>
  <circle cx="415" cy="291" r="2.5" class="dot-accent" opacity="0.6"/>
  <circle cx="463" cy="314" r="2.5" class="dot-accent" opacity="0.6"/>
</svg>